<mxfile host="app.diagrams.net" modified="2021-01-02T08:07:49.330Z" agent="5.0 (Windows NT 10.0; Win64; x64) AppleWebKit/537.36 (KHTML, like Gecko) Chrome/87.0.4280.88 Safari/537.36" etag="WGxyWyxR2L-OKzBhct_S" version="14.1.7" type="github">
  <diagram id="kgpKYQtTHZ0yAKxKKP6v" name="Page-1">
    <mxGraphModel dx="898" dy="459" grid="1" gridSize="10" guides="1" tooltips="1" connect="1" arrows="1" fold="1" page="1" pageScale="1" pageWidth="850" pageHeight="1100" math="0" shadow="0">
      <root>
        <mxCell id="0" />
        <mxCell id="1" parent="0" />
        <mxCell id="ERpvfx7dcNJ6kK2xys71-1" value="(درخواست ثبت نام (اطلاعات کاربر" style="html=1;verticalAlign=bottom;endArrow=block;labelBackgroundColor=none;fontFamily=Verdana;fontSize=12;edgeStyle=elbowEdgeStyle;elbow=vertical;" parent="1" source="ERpvfx7dcNJ6kK2xys71-3" target="ERpvfx7dcNJ6kK2xys71-24" edge="1">
          <mxGeometry relative="1" as="geometry">
            <mxPoint x="243" y="240" as="sourcePoint" />
            <mxPoint x="528" y="234" as="targetPoint" />
            <Array as="points">
              <mxPoint x="308" y="210" />
            </Array>
          </mxGeometry>
        </mxCell>
        <mxCell id="ERpvfx7dcNJ6kK2xys71-2" value="&lt;b&gt;&lt;font style=&quot;font-size: 12px&quot;&gt;(ثبت نام (خریدار&lt;/font&gt;&lt;/b&gt;" style="shape=note;whiteSpace=wrap;html=1;size=14;verticalAlign=top;align=left;spacingTop=-6;rounded=0;shadow=0;comic=0;labelBackgroundColor=none;strokeWidth=1;fontFamily=Verdana;fontSize=12" parent="1" vertex="1">
          <mxGeometry width="100" height="35" as="geometry" />
        </mxCell>
        <mxCell id="ERpvfx7dcNJ6kK2xys71-3" value="" style="shape=umlLifeline;participant=umlActor;perimeter=lifelinePerimeter;whiteSpace=wrap;html=1;container=1;collapsible=0;recursiveResize=0;verticalAlign=top;spacingTop=36;outlineConnect=0;" parent="1" vertex="1">
          <mxGeometry x="163" y="120" width="20" height="550" as="geometry" />
        </mxCell>
        <mxCell id="ERpvfx7dcNJ6kK2xys71-4" value="" style="html=1;points=[];perimeter=orthogonalPerimeter;" parent="ERpvfx7dcNJ6kK2xys71-3" vertex="1">
          <mxGeometry x="5" y="60" width="10" height="100" as="geometry" />
        </mxCell>
        <mxCell id="ERpvfx7dcNJ6kK2xys71-5" value="&lt;font style=&quot;font-size: 18px&quot;&gt;&lt;b&gt;خریدار&lt;/b&gt;&lt;/font&gt;" style="text;html=1;align=center;verticalAlign=middle;resizable=0;points=[];autosize=1;" parent="1" vertex="1">
          <mxGeometry x="143" y="100" width="60" height="20" as="geometry" />
        </mxCell>
        <mxCell id="ERpvfx7dcNJ6kK2xys71-23" value="&lt;b&gt;&lt;font&gt;&lt;font style=&quot;font-size: 18px&quot;&gt;سیستم &lt;/font&gt;&lt;br&gt;&lt;/font&gt;&lt;/b&gt;" style="shape=umlLifeline;perimeter=lifelinePerimeter;whiteSpace=wrap;html=1;container=1;collapsible=0;recursiveResize=0;outlineConnect=0;" parent="1" vertex="1">
          <mxGeometry x="288" y="100" width="100" height="570" as="geometry" />
        </mxCell>
        <mxCell id="ERpvfx7dcNJ6kK2xys71-24" value="" style="html=1;points=[];perimeter=orthogonalPerimeter;rounded=0;shadow=0;comic=0;labelBackgroundColor=none;strokeWidth=1;fontFamily=Verdana;fontSize=12;align=center;" parent="ERpvfx7dcNJ6kK2xys71-23" vertex="1">
          <mxGeometry x="45" y="91" width="10" height="120" as="geometry" />
        </mxCell>
        <mxCell id="ERpvfx7dcNJ6kK2xys71-26" value="&lt;b&gt;&amp;nbsp;پیام تایید&lt;br&gt;&lt;/b&gt;" style="html=1;verticalAlign=bottom;endArrow=open;dashed=1;endSize=8;" parent="1" edge="1">
          <mxGeometry x="0.0588" relative="1" as="geometry">
            <mxPoint x="331" y="260" as="sourcePoint" />
            <mxPoint x="178" y="260" as="targetPoint" />
            <mxPoint as="offset" />
          </mxGeometry>
        </mxCell>
        <mxCell id="ERpvfx7dcNJ6kK2xys71-27" value="ایجاد خریدار" style="html=1;verticalAlign=bottom;endArrow=block;labelBackgroundColor=none;fontFamily=Verdana;fontSize=12;edgeStyle=elbowEdgeStyle;elbow=vertical;" parent="1" edge="1">
          <mxGeometry relative="1" as="geometry">
            <mxPoint x="343" y="280" as="sourcePoint" />
            <mxPoint x="479" y="280" as="targetPoint" />
            <Array as="points">
              <mxPoint x="478.5" y="280" />
            </Array>
          </mxGeometry>
        </mxCell>
        <mxCell id="ERpvfx7dcNJ6kK2xys71-29" value="&lt;font style=&quot;font-size: 18px&quot;&gt;&lt;b&gt;خریدار&lt;/b&gt;&lt;/font&gt;" style="shape=umlLifeline;perimeter=lifelinePerimeter;whiteSpace=wrap;html=1;container=1;collapsible=0;recursiveResize=0;outlineConnect=0;rounded=1;shadow=0;comic=0;labelBackgroundColor=none;strokeWidth=1;fontFamily=Verdana;fontSize=12;align=center;" parent="1" vertex="1">
          <mxGeometry x="478" y="260" width="100" height="410" as="geometry" />
        </mxCell>
        <mxCell id="ERpvfx7dcNJ6kK2xys71-30" value="" style="html=1;points=[];perimeter=orthogonalPerimeter;rounded=0;shadow=0;comic=0;labelBackgroundColor=none;strokeWidth=1;fontFamily=Verdana;fontSize=12;align=center;" parent="ERpvfx7dcNJ6kK2xys71-29" vertex="1">
          <mxGeometry x="45" y="70" width="10" height="90" as="geometry" />
        </mxCell>
        <mxCell id="knB9OYenyFbfuA2Kg1Mx-1" value="&lt;font style=&quot;font-size: 18px&quot;&gt;&lt;b&gt;آدرس&lt;/b&gt;&lt;/font&gt;" style="shape=umlLifeline;perimeter=lifelinePerimeter;whiteSpace=wrap;html=1;container=1;collapsible=0;recursiveResize=0;outlineConnect=0;rounded=1;shadow=0;comic=0;labelBackgroundColor=none;strokeWidth=1;fontFamily=Verdana;fontSize=12;align=center;" parent="1" vertex="1">
          <mxGeometry x="628" y="350" width="78" height="320" as="geometry" />
        </mxCell>
        <mxCell id="knB9OYenyFbfuA2Kg1Mx-2" value="" style="endArrow=classic;html=1;exitX=0.9;exitY=0.43;exitDx=0;exitDy=0;exitPerimeter=0;entryX=-0.009;entryY=0.059;entryDx=0;entryDy=0;entryPerimeter=0;" parent="1" edge="1" target="knB9OYenyFbfuA2Kg1Mx-1" source="ERpvfx7dcNJ6kK2xys71-30">
          <mxGeometry width="50" height="50" relative="1" as="geometry">
            <mxPoint x="538" y="370" as="sourcePoint" />
            <mxPoint x="628" y="370" as="targetPoint" />
          </mxGeometry>
        </mxCell>
        <mxCell id="knB9OYenyFbfuA2Kg1Mx-3" value="&lt;font style=&quot;font-size: 12px&quot;&gt;ایجاد آدرس&lt;/font&gt;" style="edgeLabel;html=1;align=center;verticalAlign=middle;resizable=0;points=[];" parent="knB9OYenyFbfuA2Kg1Mx-2" vertex="1" connectable="0">
          <mxGeometry x="-0.1679" y="3" relative="1" as="geometry">
            <mxPoint y="-7" as="offset" />
          </mxGeometry>
        </mxCell>
      </root>
    </mxGraphModel>
  </diagram>
</mxfile>
